<svg width="677" height="677" viewBox="0 0 677 677" fill="none" xmlns="http://www.w3.org/2000/svg">
<path fill-rule="evenodd" clip-rule="evenodd" d="M480.719 513.709L636.839 669.829C645.938 678.933 660.729 678.933 669.828 669.829C678.932 660.73 678.932 645.939 669.828 636.84L513.708 480.72C557.104 429.808 583.333 363.772 583.333 291.667C583.333 130.693 452.645 0 291.667 0C130.688 0 0 130.688 0 291.667C0 452.645 130.688 583.333 291.667 583.333C363.765 583.333 429.8 557.104 480.72 513.708L480.719 513.709ZM291.665 46.6693C426.879 46.6693 536.665 156.451 536.665 291.669C536.665 426.888 426.884 536.669 291.665 536.669C156.447 536.669 46.6653 426.888 46.6653 291.669C46.6653 156.451 156.447 46.6693 291.665 46.6693ZM291.665 128.336C347.759 128.336 397.296 156.685 426.719 199.805C433.979 210.446 448.489 213.201 459.131 205.941C469.771 198.686 472.521 184.149 465.266 173.534C427.443 118.091 363.766 81.6701 291.666 81.6701C278.786 81.6701 268.333 92.1232 268.333 105.003C268.333 117.884 278.785 128.336 291.665 128.336Z" fill="white"/>
</svg>
